<svg width="240" height="237" viewBox="0 0 240 237" fill="none" xmlns="http://www.w3.org/2000/svg">
<path d="M32.0003 74.254C32.0003 74.254 15.8513 26.47 72.1793 32.302C128.507 38.134 101.594 16.984 122.879 3.85901C144.164 -9.26599 206.879 31.567 180.641 70.951C154.403 110.335 222.572 74.308 236.792 133.534C245.567 170.083 223.796 196.984 205.835 212.233" stroke="#CCDDE2" stroke-width="2" stroke-miterlimit="10"/>
<path d="M211.329 166.57C207.096 142.057 192.108 120.121 167.757 112.27C161.527 110.273 155.157 108.744 148.701 107.695V107.728C148.364 109.763 147.567 111.694 146.37 113.374C143.832 116.851 140.334 119.707 136.284 121.195C132.15 122.725 127.029 122.923 123.192 120.517C120.882 119.071 118.641 116.524 118.236 113.776C117.774 110.68 119.352 107.749 121.572 105.703C102.756 105.856 85.0556 108.952 70.8716 112.477C71.363 114.535 72.044 116.544 72.9056 118.477C74.111 121.172 75.815 123.615 77.9276 125.677C80.5622 123.067 82.8692 120.145 84.7976 116.977C86.642 117.581 88.2683 118.713 89.4743 120.234C90.6803 121.755 91.4126 123.596 91.5806 125.53V125.629C92.3246 132.652 85.5626 137.929 79.8806 141.175C73.3166 144.949 65.9996 147.775 58.8116 150.124C55.8476 151.096 51.9956 151.924 48.8666 150.91C48.5294 150.803 48.2006 150.671 47.8826 150.517C44.7626 148.987 42.6746 145.78 41.0456 142.849C36.4046 134.524 33.3866 125.449 31.3406 116.134C17.1416 117.949 15.5156 108.334 14.6726 105.976L2.5256 139.933C1.8884 142.374 1.8194 144.928 2.324 147.4C2.8286 149.872 3.8933 152.195 5.4359 154.191C6.9788 156.187 8.9588 157.802 11.2235 158.913C13.4882 160.025 15.9779 160.602 18.5006 160.6H68.7866L91.6286 219.19L98.1026 235.819H135.081C132.081 235.819 130.44 235.087 129.249 233.893C128.018 232.662 127.326 230.995 127.323 229.255C127.323 225.655 130.278 222.703 135.081 222.703H135.42C135.057 222.703 134.709 222.67 134.346 222.637C134.57 222.613 134.794 222.575 135.015 222.526C134.777 222.52 134.539 222.502 134.304 222.472C136.47 222.216 138.477 221.207 139.975 219.621C141.473 218.035 142.365 215.973 142.497 213.796C142.503 213.683 142.503 213.57 142.497 213.457V213.283C142.445 211.051 141.591 208.911 140.093 207.256C138.594 205.601 136.55 204.54 134.334 204.268C134.586 204.247 134.826 204.226 135.069 204.226C134.85 204.172 134.607 204.139 134.379 204.106C134.739 204.073 135.102 204.049 135.45 204.049L162.504 204.193L167.481 204.214H173.388C173.661 204.214 173.937 204.214 174.198 204.247L182.973 204.292L188.835 204.325C191.284 204.345 193.626 205.335 195.348 207.078C197.07 208.821 198.032 211.175 198.024 213.625C198.02 215.01 197.699 216.376 197.085 217.618C199.599 217.296 201.932 216.133 203.703 214.318C207.924 210.007 209.742 203.554 210.999 197.818C213.222 187.6 213.09 176.833 211.329 166.57ZM142.977 167.26C137.88 175.105 129.201 174.4 129.201 174.4C129.201 174.4 128.481 175.102 126.801 172.114C125.121 169.126 120.336 167.083 120.336 167.083C119.955 170.083 119.166 174.643 111.336 168.733C103.506 162.823 105.867 154.207 106.536 149.656C107.205 145.105 109.872 143.596 109.872 143.596L113.022 141.934C113.022 141.934 103.911 139.591 103.473 139.504C103.035 139.417 94.9196 132.622 103.155 130.828C111.39 129.034 124.227 136.168 126.708 137.578C129.189 138.988 143.688 151.252 143.688 151.252C143.688 151.252 148.101 159.427 142.977 167.26Z" fill="#2C5282"/>
<path d="M31.3286 116.14C31.3286 116.14 38.1956 115.306 40.7666 110.404L38.5256 122.977C38.5256 122.977 65.8436 113.677 70.8536 112.477C70.8536 112.477 72.4676 122.884 78.8936 125.677L85.5236 117.247C85.5236 117.247 93.8366 119.347 91.5626 130.675C89.2886 142.003 57.8366 151.471 52.5026 151.252C47.1686 151.033 41.4266 147.751 35.5466 130.114L31.3286 116.14Z" fill="#353642"/>
<path d="M42.515 88.132C44.255 90.964 46.004 93.79 47.81 96.58C48.923 98.299 50.951 100.75 48.794 102.547C48.092 103.085 47.2442 103.399 46.361 103.447C44.975 103.57 43.52 103.237 42.677 102.046L38.477 95.086C37.6397 93.6979 36.3107 92.6761 34.7543 92.2234C33.1976 91.771 31.5278 91.9213 30.077 92.644" stroke="black" stroke-width="2" stroke-miterlimit="10"/>
<path d="M58.4006 97.3C59.4986 99.91 58.7546 101.593 57.4706 102.439C55.3706 103.816 52.5596 103.156 51.0716 101.146L42.5306 88.147" stroke="black" stroke-width="2" stroke-miterlimit="10"/>
<path d="M49.7456 84.352C52.8536 88.132 56.7746 95.152 58.9436 98.083C61.1126 101.014 64.4666 99.247 64.4666 99.247C67.1906 97.78 66.7286 95.347 65.5376 92.392C62.6036 85.138 58.4156 80.314 53.7446 77.152C39.2696 67.36 24.4196 74.584 20.0006 91.486L2.5256 139.933C1.8884 142.374 1.8194 144.929 2.324 147.4C2.8286 149.872 3.8933 152.195 5.4359 154.191C6.9788 156.187 8.9588 157.803 11.2235 158.914C13.4882 160.025 15.9779 160.602 18.5006 160.6H68.7866L98.1116 235.822" stroke="black" stroke-width="2" stroke-miterlimit="10"/>
<path d="M67.7006 89.065C71.3006 87.817 71.1356 82.075 66.0266 80.137C60.3836 77.995 50.3636 74.965 47.8466 74.209C47.831 74.197 47.8121 74.1898 47.7926 74.188C47.6156 74.134 47.4926 74.089 47.3966 74.068L47.2556 74.023" stroke="black" stroke-width="2" stroke-miterlimit="10"/>
<path d="M120.89 146.476C117.74 142.69 109.118 140.545 103.49 139.507C102.544 139.329 101.681 138.849 101.032 138.139C100.383 137.428 99.9818 136.526 99.8897 135.568C99.8243 134.922 99.899 134.269 100.109 133.654C100.444 132.71 101.087 131.906 101.934 131.371C102.781 130.835 103.783 130.6 104.78 130.702C114.38 131.674 124.28 134.695 131.603 141.202C131.603 141.202 167.102 168.292 171.341 170.929C173.09 171.991 174.722 170.737 173.537 169.069L173.165 168.433C171.078 164.852 168.609 161.509 165.8 158.461" stroke="black" stroke-width="2" stroke-miterlimit="10"/>
<path d="M121.547 105.7C76.901 106.072 38.525 122.974 38.525 122.974L42.356 101.5" stroke="black" stroke-width="2" stroke-miterlimit="10"/>
<path d="M190.889 222.571C190.889 222.571 186.026 221.47 184.733 225.364C183.44 229.258 182.09 235.453 191.387 235.819C200.684 236.185 195.224 234.358 194.687 231.349C194.15 228.34 190.889 222.571 190.889 222.571Z" fill="#0BC5EA"/>
<path d="M116.6 151.417C116.6 151.417 111.353 147.439 106.628 151.471C106.429 151.646 106.255 151.848 106.112 152.071" stroke="black" stroke-width="2" stroke-miterlimit="10"/>
<g opacity="0.77">
<path opacity="0.77" d="M51.0536 101.131C52.5536 103.144 55.3616 103.801 57.4526 102.421C58.7216 101.581 59.4656 99.907 58.3946 97.321C58.5896 97.606 58.7666 97.858 58.9406 98.089C61.1066 101.032 64.4636 99.259 64.4636 99.259C67.1876 97.792 66.7286 95.359 65.5376 92.401C64.3721 89.4712 62.843 86.6995 60.9866 84.151C62.2016 83.014 63.6446 81.865 65.1656 82.369C66.8066 82.915 67.2656 84.973 67.4516 86.689C67.5386 87.487 67.6256 88.276 67.7126 89.074L69.0266 100.822C69.4646 104.722 69.9026 108.679 70.8536 112.486C71.345 114.544 72.026 116.553 72.8876 118.486C74.093 121.181 75.797 123.624 77.9096 125.686C80.5442 123.076 82.8512 120.154 84.7796 116.986C86.624 117.59 88.2503 118.722 89.4563 120.243C90.6623 121.764 91.3946 123.605 91.5626 125.539V125.638C92.3066 132.661 85.5446 137.938 79.8626 141.184C73.2986 144.958 65.9816 147.784 58.7936 150.133C55.8296 151.105 51.9776 151.933 48.8486 150.919C48.5114 150.812 48.1826 150.68 47.8646 150.526C44.7446 148.996 42.6566 145.789 41.0276 142.858C33.2276 128.833 29.9876 112.729 28.2806 96.781C31.6946 96.31 35.0966 95.785 38.4566 95.062C38.4566 95.062 38.4566 95.086 38.4776 95.095L42.3506 101.518L42.6686 102.052C43.5086 103.252 44.9636 103.573 46.3526 103.453C47.2355 103.409 48.0839 103.095 48.7826 102.553C50.9366 100.753 48.9146 98.311 47.7986 96.592" fill="white"/>
<path opacity="0.77" d="M51.0536 101.131C52.5536 103.144 55.3616 103.801 57.4526 102.421C58.7216 101.581 59.4656 99.907 58.3946 97.321C58.5896 97.606 58.7666 97.858 58.9406 98.089C61.1066 101.032 64.4636 99.259 64.4636 99.259C67.1876 97.792 66.7286 95.359 65.5376 92.401C64.3721 89.4712 62.843 86.6995 60.9866 84.151C62.2016 83.014 63.6446 81.865 65.1656 82.369C66.8066 82.915 67.2656 84.973 67.4516 86.689C67.5386 87.487 67.6256 88.276 67.7126 89.074L69.0266 100.822C69.4646 104.722 69.9026 108.679 70.8536 112.486C71.345 114.544 72.026 116.553 72.8876 118.486C74.093 121.181 75.797 123.624 77.9096 125.686C80.5442 123.076 82.8512 120.154 84.7796 116.986C86.624 117.59 88.2503 118.722 89.4563 120.243C90.6623 121.764 91.3946 123.605 91.5626 125.539V125.638C92.3066 132.661 85.5446 137.938 79.8626 141.184C73.2986 144.958 65.9816 147.784 58.7936 150.133C55.8296 151.105 51.9776 151.933 48.8486 150.919C48.5114 150.812 48.1826 150.68 47.8646 150.526C44.7446 148.996 42.6566 145.789 41.0276 142.858C33.2276 128.833 29.9876 112.729 28.2806 96.781C31.6946 96.31 35.0966 95.785 38.4566 95.062C38.4566 95.062 38.4566 95.086 38.4776 95.095L42.3506 101.518L42.6686 102.052C43.5086 103.252 44.9636 103.573 46.3526 103.453C47.2355 103.409 48.0839 103.095 48.7826 102.553C50.9366 100.753 48.9146 98.311 47.7986 96.592" fill="#FC8181"/>
<path opacity="0.77" d="M51.9746 102.082C53.3036 103.882 55.5746 103.654 57.4526 102.421C58.5866 101.671 59.5166 101.89 58.5596 99.577C58.7366 99.829 58.7606 98.977 58.9166 99.166C60.8516 101.794 58.9406 98.08 58.9406 98.08C61.6406 101.491 67.5176 98.278 66.4406 95.641C65.3006 92.8 64.1006 88.6 62.5796 86.5C63.7796 85.366 63.5486 85.534 65.0756 86.437C65.486 86.7007 65.8292 87.0559 66.0788 87.475C66.3281 87.8941 66.4766 88.3654 66.5126 88.852C66.6356 89.995 66.7586 91.09 66.8816 92.206L68.0516 102.706C68.4446 106.195 68.8346 109.72 69.6836 113.116C70.1225 114.952 70.7312 116.744 71.5016 118.468C72.5756 120.841 76.0256 124.792 77.9096 126.601C80.2526 124.276 83.0606 120.001 84.7796 117.16C88.0796 118.174 87.9356 121.33 88.1696 124.777V124.867C88.8356 131.134 82.7996 135.841 77.7416 138.742C71.8796 142.111 65.3486 144.631 58.9316 146.731C56.2856 147.601 52.8476 148.351 50.0546 147.433C49.7534 147.338 49.4597 147.221 49.1756 147.082C46.3916 145.714 44.5256 142.855 43.0706 140.236C36.7016 128.797 33.7466 115.81 32.1206 102.79C32.0015 101.816 32.2649 100.833 32.8559 100.05C33.4469 99.2662 34.3193 98.7427 35.2886 98.59C37.1156 98.29 38.9366 97.99 40.7456 97.588L40.7966 97.612L44.2526 103.345C45.0056 104.41 45.1286 103.576 46.3676 103.468C47.1506 103.399 48.6686 103.246 49.2746 102.739C51.1976 101.137 50.1116 100.474 49.1156 98.941" fill="#FC8181"/>
</g>
<path d="M115.967 157.207C115.967 157.207 106.004 153.931 105.854 159.439" stroke="black" stroke-width="2" stroke-miterlimit="10"/>
<path opacity="0.54" d="M26.7857 213.316L7.24671 163.258C7.00461 162.289 6.98661 161.278 7.19391 160.301C7.40121 159.325 7.8281 158.408 8.4428 157.621C9.0572 156.834 9.8432 156.198 10.7405 155.76C11.6381 155.322 12.6233 155.095 13.6217 155.095H91.2317C92.9744 155.095 94.6666 155.681 96.0352 156.76C97.4041 157.838 98.3698 159.347 98.7766 161.041L120.167 211.087C120.398 212.052 120.407 213.058 120.194 214.027C119.981 214.997 119.551 215.906 118.936 216.685C118.322 217.465 117.538 218.095 116.645 218.528C115.752 218.961 114.772 219.187 113.78 219.187H34.3127C32.5832 219.188 30.9029 218.611 29.5391 217.547C28.175 216.483 27.206 214.994 26.7857 213.316Z" fill="white"/>
<path d="M119.211 165.652C119.211 165.652 120.828 167.134 120.213 169.252C119.757 170.821 118.197 171.811 116.652 171.274C111.732 169.573 107.301 166.684 106.221 161.773C105.71 159.287 105.6 156.734 105.894 154.213C106.131 151.876 106.476 149.353 107.262 147.13C108.462 143.716 112.137 141.337 115.704 142.981" stroke="black" stroke-width="2" stroke-miterlimit="10"/>
<path d="M26.7857 213.316L7.24671 163.258C7.00461 162.289 6.98661 161.278 7.19391 160.301C7.40121 159.325 7.8281 158.408 8.4428 157.621C9.0572 156.834 9.8432 156.198 10.7405 155.76C11.6381 155.322 12.6233 155.095 13.6217 155.095H91.2317C92.9744 155.095 94.6666 155.681 96.0352 156.76C97.4041 157.838 98.3698 159.347 98.7766 161.041L120.167 211.087C120.398 212.052 120.407 213.058 120.194 214.027C119.981 214.997 119.551 215.906 118.936 216.685C118.322 217.465 117.538 218.095 116.645 218.528C115.752 218.961 114.772 219.187 113.78 219.187H34.3127C32.5832 219.188 30.9029 218.611 29.5391 217.547C28.175 216.483 27.206 214.994 26.7857 213.316Z" fill="#3FBDF1"/>
<path d="M26.7857 213.316L7.24671 163.258C7.00461 162.289 6.98661 161.278 7.19391 160.301C7.40121 159.325 7.8281 158.408 8.4428 157.621C9.0572 156.834 9.8432 156.198 10.7405 155.76C11.6381 155.322 12.6233 155.095 13.6217 155.095H91.2317C92.9744 155.095 94.6666 155.681 96.0352 156.76C97.4041 157.838 98.3698 159.347 98.7766 161.041L120.167 211.087C120.398 212.052 120.407 213.058 120.194 214.027C119.981 214.997 119.551 215.906 118.936 216.685C118.322 217.465 117.538 218.095 116.645 218.528C115.752 218.961 114.772 219.187 113.78 219.187H34.3127C32.5832 219.188 30.9029 218.611 29.5391 217.547C28.175 216.483 27.206 214.994 26.7857 213.316Z" stroke="black" stroke-width="2" stroke-linecap="square" stroke-linejoin="round"/>
<path d="M29.6453 211.3L11.6183 165.1C11.3957 164.206 11.3792 163.274 11.5706 162.373C11.7623 161.472 12.1565 160.626 12.7235 159.9C13.2905 159.175 14.0156 158.588 14.8436 158.184C15.6713 157.78 16.5803 157.57 17.5013 157.57H89.0993C90.707 157.569 92.2679 158.11 93.5306 159.105C94.7933 160.1 95.684 161.491 96.0593 163.054L115.796 209.227C116.01 210.118 116.018 211.046 115.821 211.94C115.624 212.835 115.227 213.673 114.66 214.392C114.093 215.111 113.37 215.693 112.546 216.092C111.721 216.492 110.818 216.7 109.901 216.7H36.5873C34.9943 216.701 33.4463 216.171 32.1887 215.193C30.9314 214.214 30.0362 212.845 29.6453 211.3Z" fill="#0BC5EA"/>
<path d="M182.877 204.052L196.605 235.819" stroke="black" stroke-width="2" stroke-miterlimit="10"/>
<path d="M120.311 92.443C118.085 94.642 114.761 94.639 112.868 92.605" stroke="black" stroke-width="2" stroke-miterlimit="10"/>
<path d="M60.9863 84.142C62.2013 83.005 63.6443 81.856 65.1653 82.36C66.8063 82.906 67.2653 84.964 67.4513 86.68C67.9772 91.396 68.5022 96.1072 69.0263 100.813C69.6923 106.813 70.3943 112.957 72.8873 118.471C74.093 121.166 75.7967 123.609 77.9093 125.671" stroke="black" stroke-width="2" stroke-miterlimit="10"/>
<path d="M91.5623 125.635V125.536C91.3946 123.602 90.6623 121.761 89.4563 120.24C88.2503 118.72 86.624 117.587 84.7793 116.983C82.8512 120.151 80.5442 123.073 77.9093 125.683C71.0012 132.552 62.1272 137.101 52.5173 138.7C52.9793 140.539 53.9303 142.213 54.5873 143.983C55.2443 145.753 55.5713 147.802 54.7733 149.509C53.7653 151.687 50.8733 151.402 48.8633 150.919C48.8423 150.919 48.8303 150.919 48.8093 150.919" stroke="black" stroke-width="2" stroke-miterlimit="10"/>
<path d="M38.4623 95.059C35.1023 95.782 31.7003 96.307 28.2863 96.778C29.9933 112.726 33.2213 128.83 41.0333 142.855C42.6623 145.786 44.7503 148.993 47.8703 150.523C48.1886 150.678 48.5174 150.809 48.8543 150.916C51.9833 151.945 55.8353 151.102 58.7993 150.13C65.9993 147.778 73.3043 144.955 79.8683 141.181C85.5353 137.932 92.2973 132.658 91.5683 125.635C91.4978 124.862 91.3397 124.099 91.0973 123.361" stroke="black" stroke-width="2" stroke-miterlimit="10"/>
<path d="M94.646 63.247C95.1494 65.3464 96.2987 67.2346 97.9322 68.6458C99.5657 70.0573 101.601 70.9201 103.751 71.113C103.929 70.2469 104.317 69.4375 104.879 68.755C107.279 65.926 108.302 71.233 115.979 67.423C126.617 62.131 130.655 65.167 130.655 65.167C131.009 65.431 130.955 67.867 131.015 68.311C131.315 70.84 131.585 73.357 131.882 75.883C132.062 77.425 132.239 78.955 132.407 80.485C132.552 80.2249 132.712 79.9732 132.887 79.732C133.856 76.303 135.587 72.253 139.319 73.996C140.075 74.3647 140.733 74.9062 141.239 75.577C143.714 78.829 141.839 81.97 139.25 84.295C138.601 85.0165 137.876 85.6651 137.087 86.23C137.513 87.112 139.253 90.613 139.253 90.625C139.433 90.979 145.514 84.097 145.967 83.347C146.644 81.5098 147.007 79.5718 147.041 77.614C147.14 69.565 143.864 60.196 137.345 55.579C135.728 54.436 136.244 53.335 136.145 51.781C136.138 51.697 136.106 51.6172 136.053 51.5518C136 51.4864 135.928 51.4387 135.847 51.415C135.766 51.3913 135.68 51.3928 135.6 51.4189C135.519 51.4453 135.449 51.4951 135.398 51.562C133.355 53.914 128.297 53.68 128.297 53.68C110.741 49.282 104.84 57.088 101.297 58.48C99.8516 59.0278 98.2601 59.0542 96.797 58.555C96.7109 59.0395 96.494 59.491 96.17 59.8612C95.846 60.2314 95.4269 60.5059 94.958 60.655L95.048 61.468C95.1245 62.0899 94.9823 62.7187 94.646 63.247Z" fill="black"/>
<path d="M103.763 71.125C101.613 70.9318 99.578 70.069 97.9445 68.6578C96.311 67.2466 95.1617 65.3581 94.6583 63.259C94.4612 62.4538 94.3367 61.6324 94.2863 60.805L94.4243 60.79C94.613 60.7759 94.7987 60.7354 94.9763 60.67C95.4452 60.5206 95.8643 60.2461 96.1883 59.8759C96.5123 59.506 96.7292 59.0542 96.8153 58.57C96.8702 58.3015 96.8813 58.0258 96.8483 57.754L96.3983 53.782C96.3983 53.782 99.5723 56.143 103.094 54.763C106.616 53.383 112.529 45.577 130.094 49.963C130.094 49.963 134.06 50.197 136.094 47.845C136.146 47.7778 136.216 47.728 136.296 47.7019C136.376 47.6755 136.462 47.6743 136.543 47.698C136.624 47.7217 136.696 47.7694 136.749 47.8345C136.802 47.8999 136.834 47.98 136.841 48.064C136.946 49.621 137.522 50.722 139.142 51.862C145.661 56.482 148.937 65.848 148.835 73.897C148.805 77.236 147.695 80.533 145.982 83.362C145.529 84.112 139.448 90.994 139.268 90.64C139.268 90.64 137.528 87.127 137.102 86.245L137 86.05L137.195 85.921C137.92 85.4293 138.611 84.8911 139.265 84.31C141.851 81.985 143.729 78.844 141.254 75.592C140.748 74.9212 140.09 74.3794 139.334 74.011C135.59 72.268 133.871 76.318 132.902 79.747C132.714 80.4022 132.598 81.0763 132.557 81.757C132.512 81.337 132.467 80.932 132.422 80.512C132.254 78.982 132.077 77.452 131.897 75.91C131.597 73.384 131.315 70.867 131.03 68.338C130.985 67.906 131.03 65.458 130.67 65.194C130.67 65.194 126.629 62.158 115.994 67.45C108.317 71.26 107.294 65.95 104.894 68.782C104.332 69.4645 103.945 70.2739 103.766 71.14C103.711 71.4181 103.676 71.6998 103.661 71.983C103.656 72.0196 103.656 72.0571 103.661 72.094C103.625 72.715 103.613 73.333 103.598 73.939C103.541 79.786 104.183 85.894 106.478 91.324C109.268 97.906 116.651 104.398 124.328 101.329C126.728 100.366 128.879 98.815 130.847 97.168" stroke="black" stroke-width="2" stroke-miterlimit="10"/>
<path d="M109.017 85.3855C109.781 85.1299 110.149 84.1738 109.84 83.2501C109.531 82.3261 108.661 81.7843 107.898 82.0399C107.134 82.2952 106.765 83.2513 107.075 84.1753C107.384 85.0993 108.253 85.6411 109.017 85.3855Z" fill="black"/>
<path d="M120.439 85.0204C121.203 84.7651 121.571 83.809 121.262 82.885C120.953 81.961 120.083 81.4192 119.32 81.6748C118.556 81.9304 118.188 82.8865 118.497 83.8102C118.806 84.7342 119.676 85.276 120.439 85.0204Z" fill="black"/>
<path d="M116.072 86.998C116.072 86.998 112.271 89.155 112.04 86.917C111.968 86.227 111.038 79.468 111.038 79.468C111.038 79.468 107.966 76.213 103.259 78.619" stroke="black" stroke-width="2" stroke-miterlimit="10"/>
<path d="M115.217 77.575C115.217 77.575 121.355 74.509 125.417 78.928" stroke="black" stroke-width="2" stroke-miterlimit="10"/>
<path d="M120.845 102.082L121.55 105.7C119.327 107.749 117.755 110.686 118.214 113.779C118.622 116.521 120.866 119.074 123.167 120.511C127.013 122.911 132.128 122.722 136.268 121.195C140.315 119.695 143.816 116.848 146.354 113.374C147.549 111.695 148.345 109.765 148.682 107.731V107.695" stroke="black" stroke-width="2" stroke-miterlimit="10"/>
<path d="M121.55 105.7L122.924 112.234" stroke="black" stroke-width="2" stroke-miterlimit="10"/>
<path d="M140.982 89.065L143.058 102.85C143.262 104.199 143.944 105.431 144.98 106.32C146.015 107.209 147.336 107.697 148.701 107.695C155.161 108.742 161.535 110.27 167.769 112.267C192.12 120.121 207.108 142.057 211.341 166.567C213.102 176.83 213.234 187.594 211.023 197.8C209.766 203.545 207.948 209.998 203.727 214.3C198.246 219.91 189.834 217.6 183.357 215.065C163.248 207.244 146.523 193.33 132.081 177.4C124.359 168.88 114.381 162.052 114.381 162.052" stroke="black" stroke-width="2" stroke-miterlimit="10"/>
<path d="M36.2906 200.959C34.0346 200.938 32.0696 199.117 31.5626 196.582C30.5606 191.596 30.2966 183.886 37.6076 182.203C46.7426 180.103 53.7686 190.051 57.2126 196.339C58.3706 198.439 57.0596 201.139 54.9026 201.139L36.2906 200.959Z" fill="#D7E8F0"/>
<path d="M39.3059 177.97C41.2454 176.679 41.2751 173.315 39.3722 170.456C37.4696 167.596 34.355 166.324 32.4155 167.615C30.476 168.905 30.4463 172.27 32.3492 175.129C34.2518 177.989 37.3664 179.261 39.3059 177.97Z" fill="#D7E8F0"/>
<path d="M189.431 222.736C189.29 222.757 189.131 222.778 188.993 222.811H188.939L167.6 222.7L135.581 222.535C135.458 222.535 135.338 222.535 135.218 222.535C134.981 222.529 134.743 222.511 134.507 222.481C136.677 222.229 138.688 221.22 140.186 219.631C141.685 218.043 142.575 215.976 142.7 213.796C142.707 213.683 142.707 213.57 142.7 213.457V213.283C142.692 211.15 141.948 209.085 140.595 207.435C139.242 205.785 137.363 204.652 135.272 204.226C135.053 204.172 134.813 204.139 134.582 204.106C134.945 204.073 135.305 204.049 135.656 204.049L162.707 204.193L167.687 204.214L174.404 204.247C176.704 204.457 178.843 205.517 180.403 207.22C181.962 208.924 182.83 211.148 182.837 213.457C182.838 213.893 182.805 214.328 182.738 214.759C182.419 216.958 181.32 218.968 179.643 220.426C177.966 221.883 175.822 222.69 173.6 222.7H189.854C188.918 222.7 189.179 222.7 189.431 222.736Z" fill="white"/>
<path d="M146.147 233.893C146.756 234.506 147.481 234.992 148.28 235.323C149.079 235.653 149.935 235.822 150.8 235.819H135.086C132.086 235.819 130.448 235.087 129.254 233.893C128.027 232.661 127.336 230.994 127.331 229.255C127.331 225.655 130.283 222.703 135.086 222.703H150.8C149.503 222.701 148.234 223.084 147.154 223.804C146.075 224.524 145.234 225.548 144.737 226.746C144.24 227.945 144.111 229.264 144.364 230.536C144.618 231.808 145.243 232.977 146.162 233.893H146.147Z" fill="#D7E8F0"/>
<path d="M198.044 213.622C198.04 215.008 197.718 216.374 197.102 217.615C196.662 218.553 196.059 219.406 195.32 220.132C194.102 221.339 192.572 222.184 190.901 222.571C190.212 222.73 189.508 222.811 188.801 222.811C188.945 222.778 189.101 222.757 189.239 222.736C188.987 222.712 188.726 222.703 189.665 222.703H173.408C175.631 222.695 177.777 221.888 179.455 220.43C181.134 218.972 182.233 216.959 182.552 214.759C182.618 214.328 182.651 213.893 182.651 213.457C182.644 211.147 181.775 208.923 180.215 207.22C178.655 205.516 176.515 204.456 174.215 204.247L182.99 204.292L188.852 204.325C191.302 204.346 193.644 205.335 195.366 207.077C197.088 208.819 198.051 211.172 198.044 213.622Z" fill="#E53E3E"/>
<path d="M198.044 213.619C198.026 216.07 197.037 218.414 195.294 220.138C193.551 221.861 191.195 222.824 188.744 222.814L135.368 222.538C135.011 222.538 134.654 222.511 134.294 222.475C136.544 222.22 138.622 221.149 140.135 219.464C141.648 217.779 142.49 215.598 142.502 213.333C142.513 211.069 141.694 208.879 140.199 207.178C138.704 205.478 136.637 204.384 134.39 204.106C134.747 204.069 135.105 204.051 135.464 204.052L188.84 204.328C191.291 204.345 193.636 205.332 195.361 207.073C197.086 208.814 198.051 211.168 198.044 213.619Z" stroke="black" stroke-width="2" stroke-linecap="square" stroke-linejoin="round"/>
<path d="M182.645 213.454C182.64 215.905 181.665 218.254 179.932 219.987C178.199 221.72 175.85 222.695 173.399 222.7H135.422C135.063 222.698 134.705 222.678 134.348 222.64C136.596 222.373 138.669 221.291 140.173 219.598C141.676 217.905 142.507 215.72 142.507 213.456C142.507 211.191 141.676 209.006 140.173 207.313C138.669 205.62 136.596 204.538 134.348 204.271C134.705 204.238 135.065 204.214 135.422 204.214H173.399C175.849 204.219 178.196 205.195 179.929 206.926C181.661 208.658 182.638 211.005 182.645 213.454Z" stroke="black" stroke-width="2" stroke-linecap="square" stroke-linejoin="round"/>
<path d="M127.331 229.258C127.331 230.118 127.5 230.97 127.83 231.765C128.159 232.56 128.642 233.282 129.251 233.89C130.451 235.09 132.08 235.819 135.083 235.819H189.662C188.723 235.819 188.978 235.801 189.233 235.777C187.636 235.589 186.163 234.822 185.095 233.62C184.026 232.418 183.436 230.866 183.436 229.258C183.436 227.65 184.026 226.098 185.095 224.896C186.163 223.695 187.636 222.927 189.233 222.739C188.978 222.715 188.723 222.697 189.662 222.697H135.083C130.277 222.7 127.331 225.652 127.331 229.258Z" stroke="black" stroke-width="2" stroke-linecap="square" stroke-linejoin="round"/>
<path d="M144.221 229.258C144.225 230.997 144.918 232.663 146.147 233.893C147.377 235.123 149.043 235.815 150.782 235.819H188.471C188.723 235.819 188.978 235.801 189.233 235.777C187.636 235.589 186.164 234.822 185.095 233.62C184.026 232.418 183.436 230.866 183.436 229.258C183.436 227.65 184.026 226.098 185.095 224.896C186.164 223.695 187.636 222.927 189.233 222.739C188.978 222.715 188.723 222.697 188.471 222.697H150.782C149.044 222.702 147.377 223.395 146.148 224.624C144.919 225.853 144.226 227.519 144.221 229.258Z" stroke="black" stroke-width="2" stroke-linecap="square" stroke-linejoin="round"/>
<path d="M83.1257 179.2H66.2897C65.5196 179.199 64.7663 178.973 64.1219 178.551C63.4772 178.13 62.9693 177.53 62.6597 176.824C62.5403 176.562 62.4893 176.273 62.5112 175.985C62.5334 175.697 62.6279 175.42 62.7857 175.179C62.9438 174.938 63.1604 174.74 63.4154 174.605C63.6704 174.47 63.9554 174.402 64.2437 174.406H82.1417C81.2987 175.825 81.7277 177.796 83.1257 179.2Z" fill="#D7E8F0"/>
<path d="M94.0127 177.466C94.0118 177.925 93.8294 178.365 93.5048 178.689C93.1805 179.014 92.7404 179.196 92.2817 179.197H83.1257C81.7277 177.796 81.2987 175.825 82.1417 174.397H90.2267C90.9962 174.397 91.7489 174.621 92.3936 175.04C93.0386 175.46 93.548 176.058 93.8597 176.761C93.9566 176.984 94.0085 177.223 94.0127 177.466Z" fill="#FC8181"/>
<path d="M89.8007 179.2C89.7533 179.291 89.6981 179.379 89.6357 179.461C88.4357 181.102 85.8287 181.261 83.8037 179.779C83.5643 179.602 83.3378 179.409 83.1257 179.2C81.7277 177.799 81.2987 175.828 82.1417 174.4C82.1891 174.308 82.2443 174.221 82.3067 174.139C83.5067 172.486 86.1017 172.339 88.1267 173.809C88.3703 173.991 88.6001 174.192 88.8137 174.409C90.1997 175.804 90.6317 177.763 89.8007 179.2Z" fill="white"/>
<path d="M98.2457 188.035C98.2424 188.494 98.0579 188.934 97.7318 189.258C97.4057 189.581 96.965 189.763 96.5057 189.763H78.8387C79.6907 188.329 79.2647 186.373 77.8637 184.963H94.4597C95.2301 184.963 95.984 185.188 96.6293 185.609C97.2743 186.03 97.7828 186.63 98.0927 187.336C98.1914 187.556 98.2436 187.794 98.2457 188.035Z" fill="#FC8181"/>
<path d="M78.8393 189.763H70.5263C69.7568 189.764 69.0035 189.54 68.3585 189.121C67.7135 188.701 67.2044 188.103 66.8933 187.399C66.7952 187.179 66.743 186.941 66.7403 186.7C66.7397 186.473 66.7844 186.248 66.8711 186.038C66.9578 185.828 67.085 185.638 67.2455 185.477C67.406 185.317 67.5968 185.189 67.8065 185.103C68.0162 185.016 68.2412 184.972 68.4683 184.972H77.8643C79.2653 186.373 79.7003 188.329 78.8393 189.763Z" fill="#D7E8F0"/>
<path d="M78.8396 189.763C78.8003 189.857 78.749 189.946 78.6866 190.027C77.4866 191.677 74.8886 191.827 72.8666 190.354C72.6218 190.172 72.3911 189.971 72.1766 189.754C70.7876 188.353 70.3616 186.397 71.1926 184.954C71.2406 184.862 71.2955 184.773 71.3576 184.69C72.5576 183.049 75.1646 182.89 77.1866 184.375C77.4272 184.55 77.654 184.743 77.8646 184.954C79.2656 186.373 79.7006 188.329 78.8396 189.763Z" fill="white"/>
<path d="M84.725 200.254H74.147C73.3778 200.253 72.6254 200.029 71.9804 199.61C71.3357 199.191 70.8263 198.593 70.514 197.89C70.3949 197.627 70.3442 197.337 70.3664 197.049C70.3889 196.761 70.4834 196.483 70.6415 196.241C70.7999 195.999 71.0165 195.801 71.2715 195.665C71.5265 195.529 71.8118 195.46 72.101 195.463H83.741C82.907 196.9 83.336 198.853 84.725 200.254Z" fill="#FC8181"/>
<path d="M101.867 198.538C101.865 198.994 101.682 199.431 101.358 199.753C101.034 200.075 100.596 200.255 100.139 200.254H84.725C83.336 198.853 82.907 196.897 83.741 195.454H98.081C98.8517 195.454 99.6053 195.679 100.251 196.1C100.896 196.521 101.404 197.121 101.714 197.827C101.813 198.051 101.865 198.293 101.867 198.538Z" fill="#D7E8F0"/>
<path d="M91.4006 200.254C91.3526 200.346 91.2974 200.434 91.2356 200.518C90.0356 202.168 87.4406 202.318 85.4156 200.845C85.1723 200.662 84.9428 200.461 84.7286 200.245C83.3396 198.844 82.9106 196.888 83.7446 195.445C83.7905 195.352 83.8445 195.264 83.9066 195.181C85.1066 193.54 87.7136 193.399 89.7386 194.866C89.9792 195.041 90.206 195.234 90.4166 195.445C91.8146 196.864 92.2406 198.832 91.4006 200.254Z" fill="white"/>
<path d="M11.4827 104.611L11.7467 104.686L11.6477 105.07C11.585 104.92 11.5301 104.767 11.4827 104.611Z" fill="#353642"/>
<path d="M58.4315 128.612C62.3804 127.453 64.4555 122.676 63.0662 117.944C61.6769 113.211 57.3494 110.314 53.4002 111.473C49.4513 112.633 47.3762 117.409 48.7655 122.142C50.1548 126.875 54.4826 129.771 58.4315 128.612Z" fill="#D7E8F0"/>
</svg>
